<?xml version="1.0" encoding="UTF-8"?>
<svg width="86px" height="80px" viewBox="0 0 86 80" version="1.1" xmlns="http://www.w3.org/2000/svg" xmlns:xlink="http://www.w3.org/1999/xlink">
    <!-- Generator: Sketch 51.3 (57544) - http://www.bohemiancoding.com/sketch -->
    <title>暂无数据</title>
    <desc>Created with Sketch.</desc>
    <defs>
        <path d="M20,33 C27.1797017,33 33,27.1797017 33,20 C33,12.8202983 27.1797017,7 20,7 C12.8202983,7 7,12.8202983 7,20 C7,27.1797017 12.8202983,33 20,33 Z M20,40 C8.954305,40 0,31.045695 0,20 C0,8.954305 8.954305,0 20,0 C31.045695,0 40,8.954305 40,20 C40,31.045695 31.045695,40 20,40 Z" id="path-1"></path>
    </defs>
    <g id="暂无数据" stroke="none" stroke-width="1" fill="none" fill-rule="evenodd">
        <g id="Group-12" transform="translate(-1.000000, -14.000000)">
            <ellipse id="Oval-3" fill="#F1F5F9" fill-rule="nonzero" cx="44" cy="85.1111111" rx="43" ry="8.88888889"></ellipse>
            <polygon id="Rectangle-6-Copy-2" fill="#B6C1CD" fill-rule="nonzero" transform="translate(29.000000, 62.500000) scale(-1, 1) translate(-29.000000, -62.500000) " points="14 47 44 51.1428571 44 78 14 73.8571429"></polygon>
            <polygon id="Rectangle-6-Copy-3" fill="#CDD6E0" fill-rule="nonzero" points="44 47 74 51.1428571 74 78 44 73.8571429"></polygon>
            <g id="Path-3" transform="translate(19.000000, 39.000000)">
                <mask id="mask-2" fill="white">
                    <use xlink:href="#path-1"></use>
                </mask>
                <use id="Mask" fill="#E7ECF0" fill-rule="nonzero" xlink:href="#path-1"></use>
                <polygon fill="#45A2FF" fill-rule="nonzero" mask="url(#mask-2)" points="1 7 11 16 19 11.5 12 -3"></polygon>
            </g>
            <g id="Group" transform="translate(46.145826, 47.426915) rotate(-330.000000) translate(-46.145826, -47.426915) translate(13.645826, 11.426915)" fill-rule="nonzero">
                <path d="M20.5174513,61.7973231 L47.7186086,59.6524742 L45.109839,19.2020581 L20.5174513,61.7973231 Z" id="Path-4" stroke="#F1F5F9" stroke-width="8" transform="translate(32.607695, 36.071797) rotate(-30.000000) translate(-32.607695, -36.071797) "></path>
                <path d="M31,19 L33,19 L33,20 L31,20 L31,19 Z M31,24 L33,24 L33,25 L31,25 L31,24 Z M31,29 L33,29 L33,30 L31,30 L31,29 Z M31,34 L33,34 L33,35 L31,35 L31,34 Z M31,39 L33,39 L33,40 L31,40 L31,39 Z M31,44 L33,44 L33,45 L31,45 L31,44 Z M31,49 L33,49 L33,50 L31,50 L31,49 Z M31,54 L33,54 L33,55 L31,55 L31,54 Z M31,59 L33,59 L33,60 L31,60 L31,59 Z M31,64 L33,64 L33,65 L31,65 L31,64 Z" id="Combined-Shape" fill="#45A2FF"></path>
            </g>
            <polygon id="Rectangle-6" fill="#CDD6E0" fill-rule="nonzero" points="14 51 44 57.1428571 44 85 14 78.8571429"></polygon>
            <path d="M23.2425356,58.0298575 L33.2425356,60.5298575 C33.6877026,60.6411493 34,61.0411324 34,61.5 L34,63.4384472 C34,63.9907319 33.5522847,64.4384472 33,64.4384472 C32.9182382,64.4384472 32.836785,64.4284198 32.7574644,64.4085897 L22.7574644,61.9085897 C22.3122974,61.7972979 22,61.3973148 22,60.9384472 L22,59 C22,58.4477153 22.4477153,58 23,58 C23.0817618,58 23.163215,58.0100273 23.2425356,58.0298575 Z" id="Rectangle-16" fill="#B6C1CD" fill-rule="nonzero"></path>
            <polygon id="Rectangle-6-Copy" fill="#E1E7F0" fill-rule="nonzero" points="74 51 74 78.8571429 44 85 44 57.1428571"></polygon>
        </g>
    </g>
</svg>